HIERARCHY
ROOT Hips
{
	OFFSET -0.001795 -0.223333 0.028219
	CHANNELS 6 Xposition Yposition Zposition Zrotation Yrotation Xrotation 
	JOINT LeftUpLeg
	{
		OFFSET 0.069520 -0.091406 -0.006815
		CHANNELS 3 Zrotation Yrotation Xrotation
		JOINT LeftLeg
		{
			OFFSET 0.034277 -0.375199 -0.004496
			CHANNELS 3 Zrotation Yrotation Xrotation
			JOINT LeftFoot
			{
				OFFSET -0.013596 -0.397961 -0.043693
				CHANNELS 3 Zrotation Yrotation Xrotation
				JOINT LeftToe
				{
					OFFSET 0.026358 -0.055791 0.119288
					CHANNELS 3 Zrotation Yrotation Xrotation
					End Site
					{
						OFFSET 0.000000 0.000000 0.000000
					}
				}
			}
		}
	}
	JOINT RightUpLeg
	{
		OFFSET -0.067670 -0.090522 -0.004320
		CHANNELS 3 Zrotation Yrotation Xrotation
		JOINT RightLeg
		{
			OFFSET -0.038290 -0.382569 -0.008850
			CHANNELS 3 Zrotation Yrotation Xrotation
			JOINT RightFoot
			{
				OFFSET 0.015774 -0.398415 -0.042312
				CHANNELS 3 Zrotation Yrotation Xrotation
				JOINT RightToe
				{
					OFFSET -0.025372 -0.048144 0.123348
					CHANNELS 3 Zrotation Yrotation Xrotation
					End Site
					{
						OFFSET 0.000000 0.000000 0.000000
					}
				}
			}
		}
	}
	JOINT Spine
	{
		OFFSET -0.002533 0.108963 -0.026696
		CHANNELS 3 Zrotation Yrotation Xrotation
		JOINT Spine1
		{
			OFFSET 0.005487 0.135180 0.001092
			CHANNELS 3 Zrotation Yrotation Xrotation
			JOINT Spine2
			{
				OFFSET 0.001457 0.052922 0.025425
				CHANNELS 3 Zrotation Yrotation Xrotation
				JOINT Neck
				{
					OFFSET -0.002778 0.213870 -0.042857
					CHANNELS 3 Zrotation Yrotation Xrotation
					JOINT Head
					{
						OFFSET 0.005152 0.064970 0.051349
						CHANNELS 3 Zrotation Yrotation Xrotation
						End Site
						{
							OFFSET 0.000000 0.000000 0.000000
						}
					}
				}
				JOINT LeftShoulder
				{
					OFFSET 0.078845 0.121749 -0.034090
					CHANNELS 3 Zrotation Yrotation Xrotation
					JOINT LeftArm
					{
						OFFSET 0.090977 0.030469 -0.008868
						CHANNELS 3 Zrotation Yrotation Xrotation
						JOINT LeftForeArm
						{
							OFFSET 0.259612 -0.012772 -0.027456
							CHANNELS 3 Zrotation Yrotation Xrotation
							JOINT LeftHand
							{
								OFFSET 0.249234 0.008986 -0.001171
								CHANNELS 3 Zrotation Yrotation Xrotation
								End Site
								{
									OFFSET 0.000000 0.000000 0.000000
								}
							}
						}
					}
				}
				JOINT RightShoulder
				{
					OFFSET -0.081759 0.118833 -0.038615
					CHANNELS 3 Zrotation Yrotation Xrotation
					JOINT RightArm
					{
						OFFSET -0.096012 0.032551 -0.009143
						CHANNELS 3 Zrotation Yrotation Xrotation
						JOINT RightForeArm
						{
							OFFSET -0.253742 -0.013329 -0.021401
							CHANNELS 3 Zrotation Yrotation Xrotation
							JOINT RightHand
							{
								OFFSET -0.255298 0.007772 -0.005559
								CHANNELS 3 Zrotation Yrotation Xrotation
								End Site
								{
									OFFSET 0.000000 0.000000 0.000000
								}
							}
						}
					}
				}
			}
		}
	}
}
MOTION
Frames: 7
Frame Time: 0.050000
-0.028792 0.938346 -0.318669 -1.122243 3.035241 3.204675 4.879768 -1.557064 -26.088063 -3.083636 0.321715 -0.985056 -1.265838 6.770909 23.991140 0.000000 0.000000 0.000000 4.926159 -0.141311 0.012115 0.033581 0.242099 6.769302 -2.080385 -2.563127 -6.921470 0.000000 0.000000 0.000000 0.024626 -0.423954 9.615710 -2.247818 1.078891 -1.345406 0.224110 2.980918 4.611437 -1.560965 2.947019 -24.294951 0.000000 0.000000 0.000000 -23.952139 1.332865 -4.593468 -42.942572 -10.036497 -1.218478 -22.481441 -53.340880 12.738746 0.000000 0.000000 0.000000 15.377427 2.995929 1.041440 49.354231 14.319761 0.815200 27.960592 47.283957 14.789158 0.000000 0.000000 0.000000 
-0.031412 0.941984 -0.346704 -0.612170 2.825144 2.633123 5.070409 -1.472306 -25.623717 -3.445362 0.339388 2.572096 -0.169068 6.808697 18.806195 0.000000 0.000000 0.000000 4.725772 -0.113278 -0.098966 -0.192094 0.280422 6.717079 -2.032361 -2.804042 -6.022178 0.000000 0.000000 0.000000 0.253157 -0.449971 9.738958 -2.065821 1.012608 -2.456960 0.129884 2.196432 5.426323 -1.180453 2.669554 -24.415825 0.000000 0.000000 0.000000 -24.620855 4.262167 -6.123636 -43.789103 -8.813169 -1.819983 -22.068223 -49.907301 11.805691 0.000000 0.000000 0.000000 14.308255 2.103257 0.441278 49.493517 13.689477 0.546022 30.263559 45.091888 14.855759 0.000000 0.000000 0.000000 
-0.033354 0.945760 -0.372886 -0.033029 2.698919 2.312660 4.405026 -1.547464 -24.878378 -3.230751 0.266787 7.723033 0.633783 6.686499 14.266146 0.000000 0.000000 0.000000 4.295883 0.038776 -1.077250 -0.116319 0.260397 6.496412 -1.946724 -3.188759 -4.563394 0.000000 0.000000 0.000000 0.209459 -0.426038 9.398552 -2.336465 1.132570 -2.240194 0.116005 1.726993 5.169623 -1.125033 2.561377 -24.092393 0.000000 0.000000 0.000000 -23.937376 4.430378 -5.908821 -44.202692 -7.102598 -2.483389 -19.949678 -45.983770 9.933804 0.000000 0.000000 0.000000 14.317558 1.640048 0.093476 48.805987 12.390952 0.029240 30.099575 43.508270 14.043900 0.000000 0.000000 0.000000 
-0.034771 0.949338 -0.398100 0.755512 2.684666 2.631199 3.625065 -1.577258 -23.159958 -3.662922 0.295904 13.306337 2.241036 7.560744 8.231502 0.000000 0.000000 0.000000 3.420296 0.283522 -2.847601 -0.245420 0.273881 6.280075 -1.917417 -3.593031 -3.410747 0.000000 0.000000 0.000000 -0.271868 -0.362784 9.081568 -2.407932 1.165738 -2.501875 0.371972 0.658268 5.087294 -0.838276 2.246026 -23.452892 0.000000 0.000000 0.000000 -23.339564 5.354644 -5.980045 -43.932112 -5.665096 -3.066058 -18.176896 -42.714674 8.624056 0.000000 0.000000 0.000000 14.084495 1.318231 -0.275090 48.090641 11.812694 -0.169746 28.447706 42.414903 12.736285 0.000000 0.000000 0.000000 
-0.035691 0.951304 -0.423038 1.022009 2.470404 3.027611 3.734592 -1.429744 -21.423868 -4.642895 0.514473 19.485538 3.634979 8.524745 2.776510 0.000000 0.000000 0.000000 3.423057 0.540744 -4.866507 -0.465192 0.312913 6.318605 -1.974043 -4.127344 -2.442313 0.000000 0.000000 0.000000 -0.155533 -0.344111 8.437451 -1.944110 0.953021 -2.333519 -0.098685 -0.327101 4.730410 -0.226378 1.821216 -23.558233 0.000000 0.000000 0.000000 -22.519483 5.741200 -5.769815 -43.453985 -3.890592 -3.684955 -17.453172 -40.271405 7.938606 0.000000 0.000000 0.000000 13.907335 1.498780 -0.373141 47.074214 11.602171 -0.194730 26.794328 42.006490 11.734135 0.000000 0.000000 0.000000 
-0.035898 0.952583 -0.448018 1.226699 2.826607 3.126026 3.244591 -1.323870 -18.696647 -5.111795 0.619880 25.604010 4.269025 8.555832 -1.441681 0.000000 0.000000 0.000000 3.241022 0.793285 -6.863048 -0.306454 0.320152 7.261900 -1.850905 -4.058707 -1.808640 0.000000 0.000000 0.000000 0.043389 -0.365606 8.464749 -1.918983 0.946006 -2.505249 0.359141 -1.491963 4.502596 0.082667 1.582119 -24.369480 0.000000 0.000000 0.000000 -22.449380 6.067165 -5.645772 -42.893490 -3.038689 -3.987060 -17.409243 -37.803932 7.523538 0.000000 0.000000 0.000000 13.392670 1.280950 -0.646631 45.646973 12.145680 0.044996 24.977051 41.641336 10.701395 0.000000 0.000000 0.000000 
-0.034943 0.952419 -0.473145 0.976711 2.803600 2.202740 3.264633 -0.971678 -13.846108 -6.859657 1.252383 29.109380 5.541531 10.736422 -3.316096 0.000000 0.000000 0.000000 3.871817 0.968990 -7.968340 -1.082182 0.481743 7.832864 -1.490772 -3.916665 0.270067 0.000000 0.000000 0.000000 0.197213 -0.443553 9.822527 -2.275098 1.116189 -3.171515 1.716594 -2.356273 4.981326 -0.766467 1.850363 -24.048714 0.000000 0.000000 0.000000 -21.883071 5.660396 -4.979214 -44.039888 -2.813412 -4.318620 -17.556225 -36.457306 7.436205 0.000000 0.000000 0.000000 14.331000 1.568716 -0.800801 43.031937 12.931227 0.265097 21.182076 41.066555 8.913909 0.000000 0.000000 0.000000 
